<svg width="25" height="26" fill="none" xmlns="http://www.w3.org/2000/svg"><path fill-rule="evenodd" clip-rule="evenodd" d="M20.824 21.008s.592-.137.668-.451L22.905 8.75l.073-.605a.615.615 0 00-.232-.642.574.574 0 00-.667-.01l-3.344 2.294a.607.607 0 00-.251.386.623.623 0 00.087.456c.195.3.298.648.298 1.008 0 1.003-.793 1.819-1.769 1.819-.975 0-1.768-.816-1.768-1.82 0-.59.282-1.145.756-1.488a.617.617 0 00.145-.843l-2.776-4.08c-.221-.325-.745-.325-.966 0l-2.776 4.08a.617.617 0 00.144.844c.474.342.757.898.757 1.488 0 1.003-.794 1.819-1.769 1.819-.975 0-1.768-.816-1.768-1.82 0-.36.103-.708.297-1.007a.623.623 0 00.088-.456.607.607 0 00-.251-.386L3.868 7.495a.574.574 0 00-.666.009c-.2.144-.291.4-.232.642l1.485 12.41a.588.588 0 00.669.452h15.7z" fill="#F6DA24"/></svg>