<svg width="24" height="16" fill="none" xmlns="http://www.w3.org/2000/svg"><path d="M14.9 5.258c.255-.001.452.15.503.386a.489.489 0 01-.465.601c-.177.009-.333-.04-.447-.181a.478.478 0 01-.065-.514.471.471 0 01.418-.292c.019-.002.038 0 .057 0zm4.478 4.519c.112.038.22.081.329.111.298.084.612.088.912.015a.696.696 0 00.294-.165c.111-.098.148-.229.16-.367.01-.094.002-.189.002-.284a.06.06 0 00-.015.009c-.247.23-.543.332-.877.33a1.244 1.244 0 01-1.252-1.061c-.063-.386-.018-.756.186-1.096.218-.367.537-.59.963-.643.34-.042.653.026.918.257.027.023.048.053.072.08l.013-.008V6.72h.817v2.5c0 .31-.062.605-.235.868-.215.33-.527.516-.904.6a2.337 2.337 0 01-1.356-.11.054.054 0 01-.028-.04c-.002-.247-.001-.495-.001-.743l.002-.018zM21.022 8a.626.626 0 00-.58-.649c-.313-.026-.57.109-.683.383a.763.763 0 00-.032.476c.105.44.65.636 1.025.369.191-.137.268-.33.27-.58zM3.855 6.902l.105.051c.372.195.556.508.575.923.013.274-.036.534-.18.771-.179.294-.448.468-.767.573-.214.07-.434.1-.658.103-.302.004-.604.002-.905.002-.008 0-.015 0-.025-.002V5.41c.013-.001.025-.003.038-.003h.779c.27.001.53.049.77.178.22.118.391.284.462.529a.757.757 0 01-.192.783l-.002.006zm-1.04 1.744c.08-.004.156-.004.231-.012.37-.04.682-.322.707-.707.03-.466-.302-.768-.606-.808-.01-.002-.028-.01-.028-.015 0-.012.006-.023.015-.032a.58.58 0 00.192-.4c.014-.2-.033-.376-.208-.498a.54.54 0 00-.303-.094v2.566zm5.021.678h-.814V9.04c-.049.046-.09.09-.135.127-.23.188-.496.261-.788.257-.68-.01-1.181-.508-1.275-1.14-.06-.398.008-.771.245-1.101.291-.407.693-.59 1.192-.565a.981.981 0 01.641.26c.04.037.076.08.118.125V6.72h.816v2.605zm-.877-1.309c0-.396-.272-.666-.673-.666-.39-.001-.668.276-.67.67-.001.396.275.675.668.674.4 0 .675-.277.675-.678zm6.241-.117l1.055 1.425-.058.002-.866.001a.075.075 0 01-.068-.035l-.87-1.172-.043-.057v1.26h-.815V5.41h.813v2.42l.009.005.028-.035.788-1.048c.018-.025.036-.036.068-.035.272.001.545 0 .817 0l.047.003-.905 1.178zM8.341 9.322V6.72h.813v.277l.013-.001a.876.876 0 01.601-.36c.222-.037.442-.03.656.046.278.098.446.302.541.573.08.226.1.46.1.697v1.33c0 .013 0 .025-.002.04h-.815v-.05c0-.439.002-.878-.002-1.316 0-.09-.012-.177-.035-.263-.062-.237-.239-.36-.483-.349-.29.014-.489.192-.546.496a1.517 1.517 0 00-.025.269c-.003.386-.002.772-.002 1.159v.054h-.814zm10.219.001h-.816v-.051c0-.439.002-.878-.001-1.316a1.097 1.097 0 00-.035-.263c-.063-.238-.242-.363-.488-.349-.288.016-.485.194-.542.496a1.509 1.509 0 00-.025.269c-.003.386-.001.772-.001 1.159v.054h-.813V6.72h.811v.277l.013-.001a.876.876 0 01.601-.36c.222-.037.442-.03.656.046.278.098.446.302.541.573.08.226.1.46.1.697v1.33l-.001.04zM14.493 6.72h.812v2.603h-.812V6.72z" fill="#FFB3C7"/></svg>