<svg width="24" height="16" fill="none" xmlns="http://www.w3.org/2000/svg"><path d="M6.401 5.426h-.979c-.02 0-.04.02-.04.04v3.466c0 .245-.125.47-.344.59a.606.606 0 01-.284.072h-.02a.669.669 0 01-.55-.291.634.634 0 01-.092-.325c0-.02-.02-.04-.04-.04h-1c-.012 0-.032.007-.039.02-.006 0-.013.014-.013.027a1.714 1.714 0 001.714 1.668h.033a1.716 1.716 0 001.694-1.72V5.464c0-.02-.02-.04-.04-.04zm10.747 2.581a1.79 1.79 0 00-.979-.986 1.963 1.963 0 00-1.476 0 1.79 1.79 0 00-.595.39 1.914 1.914 0 00-.516 1.33c0 .258.046.51.139.748.086.218.211.423.377.596.172.172.37.304.595.39.477.185 1 .185 1.476 0a1.98 1.98 0 00.59-.39c.165-.173.297-.371.39-.596.092-.238.139-.49.139-.748a1.904 1.904 0 00-.14-.734zm-2.25.072a.64.64 0 01.239-.152.84.84 0 01.595 0 .744.744 0 01.245.159.9.9 0 01.172.271c.086.258.086.536 0 .794a.854.854 0 01-.172.278.697.697 0 01-.245.166.821.821 0 01-.589 0 .67.67 0 01-.238-.166.854.854 0 01-.172-.278 1.15 1.15 0 010-.787.687.687 0 01.165-.285zM21 8.37v2.244c0 .02-.02.04-.04.04H21h-1.02c-.019 0-.039-.02-.039-.04V8.549a.99.99 0 00-.026-.278.572.572 0 00-.133-.218c-.026-.02-.046-.046-.072-.06a.7.7 0 00-.345-.086.554.554 0 00-.456.245.513.513 0 00-.073.199c-.013.06-.013.112-.013.172v2.091c0 .02-.02.04-.04.04h-.98c-.02 0-.039-.02-.039-.04V6.987c0-.02.02-.04.04-.04h-.007.986c.027 0 .04.02.04.04v.186c0 .006 0 .013.006.02.007.006.014.006.02 0a.808.808 0 01.192-.113 1.568 1.568 0 011.211-.026c.166.072.311.178.424.317.112.133.198.291.245.457.053.179.079.357.079.543zm-7.915-1.422h-.582c-.02 0-.04-.02-.04-.04V5.465c0-.02-.02-.04-.04-.04h-.979c-.02 0-.04.02-.04.04v-.119 1.496c0 .02-.02.04-.04.04h-.317c-.02 0-.04.02-.04.04v.913c0 .026.02.04.04.04h.318c.02 0 .04.02.04.039v1.224c0 .82.655 1.49 1.469 1.49.072 0 .145-.007.218-.014.02-.007.033-.02.033-.04V9.568c0-.02-.02-.04-.04-.04h-.231a.387.387 0 01-.39-.337V7.98c0-.026.02-.04.039-.04h.582c.02 0 .04-.02.04-.04v-.906c0-.026-.02-.046-.04-.046zm-3.189.357c-.014-.013-.034-.026-.053-.04a1.772 1.772 0 00-1.33-.317h-.027c-.159.02-.318.06-.463.119a1.839 1.839 0 00-.583.39c-.165.166-.297.37-.39.59a2.045 2.045 0 000 1.482 1.744 1.744 0 00.973.98c.212.085.43.131.655.138.053 0 .106.007.165.007h.12a1.794 1.794 0 001.376-.814c.007-.007.007-.02.007-.027 0-.006-.007-.02-.014-.02 0-.006-.006-.006-.013-.006l-.873-.245c-.02-.007-.047-.013-.073-.007a.287.287 0 00-.08.033l-.006.007a.803.803 0 01-.715.08c-.007 0-.007-.007-.013-.007a.79.79 0 01-.463-.49v-.02c.006-.006.006-.006.013-.006h2.296c.013 0 .033-.007.033-.027a1.668 1.668 0 00-.053-1.092 1.71 1.71 0 00-.49-.708zm-.484.966h-1.31c.007-.02.013-.04.027-.06l.006-.012c.027-.034.053-.073.08-.1a.582.582 0 01.238-.159.84.84 0 01.596 0c.145.06.264.16.35.292 0 .013.007.026.014.04z" fill="#FF6300"/></svg>