<svg width="24" height="16" fill="none" xmlns="http://www.w3.org/2000/svg"><path d="M14.068 4.09l-4.265.014.13 7.807 4.264-.015-.13-7.807z" fill="#FF5F00"/><path d="M10.084 8.023a4.94 4.94 0 011.799-3.914 4.882 4.882 0 00-3.038-1.053c-2.708.01-4.862 2.24-4.816 4.988.046 2.748 2.273 4.963 4.98 4.954a4.766 4.766 0 003.004-1.074 5.064 5.064 0 01-1.93-3.9z" fill="#EB001B"/><path d="M19.97 7.956c.047 2.748-2.107 4.978-4.815 4.988a4.881 4.881 0 01-3.038-1.053c1.128-.915 1.825-2.326 1.8-3.914a5.085 5.085 0 00-1.93-3.901 4.766 4.766 0 013.003-1.074c2.708-.01 4.935 2.22 4.98 4.954z" fill="#F79E1B"/></svg>