<svg width="24" height="16" fill="none" xmlns="http://www.w3.org/2000/svg"><path d="M17 8.002a5 5 0 11-10 0A5 5 0 0117 8v.002z" fill="#F7931A"/><path d="M12.912 7.03c0 .639-1.004.564-1.323.564V6.465c.32 0 1.321-.102 1.321.565h.002zm.262 1.757c0 .702-1.202.622-1.585.622V8.164c.383 0 1.586-.11 1.586.622zm.792-2.01c-.065-.67-.643-.895-1.373-.959V4.89h-.565v.905c-.149 0-.301.003-.452.006v-.91h-.565v.928c-.123.003-.243.005-.36.005V5.82h-.78v.605s.417-.008.41 0c.158-.02.303.09.326.248V7.73c.02 0 .04.001.06.004h-.06v1.482a.2.2 0 01-.211.188c.006.006-.412 0-.412 0l-.112.675h.736c.137 0 .271.003.403.004v.94h.565v-.93c.155.003.306.004.452.004v.926h.565v-.938c.952-.055 1.616-.294 1.699-1.187.066-.72-.272-1.04-.811-1.17a.875.875 0 00.485-.952z" fill="#fff"/></svg>