<svg width="24" height="16" fill="none" xmlns="http://www.w3.org/2000/svg"><path d="M15.608 9.179c-.317 0-.554-.162-.62-.448-.063.286-.3.448-.618.448-.523 0-.781-.357-.781-.841V6.894h.509V8.37c0 .235.08.39.317.39.227 0 .318-.155.321-.39V6.894h.506V8.37c0 .235.094.39.321.39.237 0 .317-.155.317-.39V6.894h.51v1.444c0 .484-.258.84-.782.84zm2.318-.036v-.16c-.122.138-.318.196-.5.196-.334 0-.658-.213-.658-.6 0-.41.31-.555.68-.555h.478v-.062c0-.282-.23-.31-.44-.31s-.366.04-.492.104l-.122-.34c.087-.046.325-.168.726-.168.446 0 .837.274.837.732v1.163h-.51zm0-.816h-.35c-.191 0-.3.072-.3.22 0 .148.12.228.256.228.254 0 .394-.156.394-.242v-.206zm.959.815V6.483h.5v2.659h-.5zm.96 0V6.483h.5v2.659h-.5zm1.368-.764v.032c0 .278.206.365.422.365.21 0 .429-.073.583-.148l.143.357a1.692 1.692 0 01-.785.195c-.506 0-.872-.321-.872-.806v-.32c0-.488.366-.805.872-.805.509 0 .875.32.875.805l-.003.32-1.235.005zm.363-.73c-.175 0-.363.076-.363.39h.73c-.001-.314-.19-.39-.367-.39zm2.221 1.495c-.439 0-.805-.275-.805-.679v-.762h-.318v-.414h.318v-.571h.506v.567H24v.418h-.502v.79c0 .135.125.232.296.232H24v.419h-.203zM5.896 8.378v.032c0 .278.205.365.421.365.21 0 .43-.073.583-.148l.143.357a1.693 1.693 0 01-.785.195c-.505 0-.872-.321-.872-.806v-.32c0-.488.366-.805.872-.805.51 0 .876.32.876.805v.325H5.896zm.362-.73c-.174 0-.362.076-.362.39h.729c0-.314-.189-.39-.367-.39zM7.41 9.143v-.329l1.03-1.502h-.95v-.418h1.615v.329L8.066 8.724h1.088v.419H7.41zm2.548-.765v.032c0 .278.205.365.422.365.209 0 .429-.073.582-.148l.143.357a1.692 1.692 0 01-.785.195c-.506 0-.872-.321-.872-.806v-.32c0-.488.366-.805.872-.805.51 0 .876.32.876.805v.325H9.958zm.362-.73c-.174 0-.362.076-.362.39h.729c0-.314-.189-.39-.367-.39zm1.646.73v.032c0 .278.206.365.422.365.209 0 .429-.073.582-.148l.143.357a1.692 1.692 0 01-.784.195c-.506 0-.873-.321-.873-.806v-.32c0-.488.367-.805.873-.805.509 0 .875.32.875.805v.325h-1.238zm.363-.73c-.175 0-.363.076-.363.39h.729c0-.314-.188-.39-.366-.39z" fill="#7296D7"/><path d="M4.07 8.285v.574H1.907c-.15 0-.278-.14-.278-.294 0-.155.121-.281.27-.281l2.171.001zM1.907 7.138c-.15 0-.284.139-.284.294 0 .155.127.291.277.291l2.17.003v-.588H1.907zm-.43 2.268c-.319 0-.577-.128-.577-.544 0-.55.524-.397.524-.858 0-.462-.538-.294-.538-.844 0-.416.272-.559.59-.559l2.851-.009V5.77H1.352C.63 5.77.03 6.174.03 7.012c0 .711.516.711.516.992 0 .28-.545.273-.545.984 0 .838.642 1.242 1.366 1.242H4.34l-.002-.824H1.476z" fill="#03C5D3"/></svg>