<svg width="24" height="16" fill="none" xmlns="http://www.w3.org/2000/svg"><g clip-path="url(#clip0_360_279)" fill="#fff"><path d="M10.24 7h.383l.759 1.78.74-1.78h.382v2.733h-.402V8.028h-.012l-.583 1.43h-.25l-.609-1.43h-.006v1.705h-.401V7zm3.21.783h-.376v1.944h.376V7.783zM14.008 7h1.498v.389h-1.097v.808h1.097v.364h-1.097v1.172h-.401V7zm2.269.783h-.376v1.944h.376V7.783zm.52 0h.376v.207h.007a.594.594 0 01.489-.232c.156 0 .3.057.426.17.125.112.194.282.2.507v1.292h-.376V8.573a.44.44 0 00-.106-.313.341.341 0 00-.27-.107c-.106 0-.2.038-.27.107-.068.069-.106.175-.106.313v1.16h-.376l.006-1.95zm2.376 0h-.376v1.944h.376V7.783zm.564-.777h.376v.777h.276v.301h-.276V9.22c0 .1.044.144.132.144h.144v.37h-.194a.45.45 0 01-.326-.125.46.46 0 01-.132-.351V8.084h-.188v-.3h.188v-.778zm.903.777h.4l.446 1.36h.006l.445-1.36h.401l-.808 2.351a.566.566 0 01-.213.3.6.6 0 01-.314.082h-.125v-.37h.113a.23.23 0 00.226-.17l.1-.325-.677-1.868zm-7.378-.319a.232.232 0 100-.464.232.232 0 000 .464zm2.827 0a.232.232 0 100-.464.232.232 0 000 .464zm2.896 0a.232.232 0 100-.464.232.232 0 000 .464zM5.233 8.01a.113.113 0 100-.227.113.113 0 000 .226zm-.283-.226a.125.125 0 100-.251.125.125 0 000 .25zm-.325-.207a.132.132 0 100-.264.132.132 0 000 .264zm-.383-.145a.132.132 0 100-.263.132.132 0 000 .263zm-.42-.018a.157.157 0 100-.314.157.157 0 000 .314zm-.457.112a.176.176 0 100-.35.176.176 0 000 .35zm-.439.326a.194.194 0 100-.388.194.194 0 000 .388zm-.314.452a.207.207 0 100-.414.207.207 0 000 .414zm-.025.646a.226.226 0 100-.452.226.226 0 000 .451zm.358.582a.257.257 0 100-.514.257.257 0 000 .514zm2.739-.877a.226.226 0 100-.452.226.226 0 000 .452zm.489-.489a.238.238 0 100-.477.238.238 0 000 .477zm-1.053.996a.25.25 0 100-.501.25.25 0 000 .502zm-.64.445a.3.3 0 100-.601.3.3 0 000 .601zm-.796.233a.345.345 0 100-.69.345.345 0 000 .69zM6.83 7.809a.288.288 0 100-.577.288.288 0 000 .577zm.797-.182a.313.313 0 100-.627.313.313 0 000 .627zm.708.169a.257.257 0 100-.514.257.257 0 000 .514zm.358.564a.226.226 0 100-.451.226.226 0 000 .451zm-.013.59a.194.194 0 100-.39.194.194 0 000 .39zm-.326.42a.176.176 0 100-.352.176.176 0 000 .351zm-.414.281a.176.176 0 100-.35.176.176 0 000 .35zm-.463.076a.157.157 0 100-.314.157.157 0 000 .314zm-.439-.057a.132.132 0 100-.263.132.132 0 000 .263zm-.364-.163a.125.125 0 100-.25.125.125 0 000 .25zm-.332-.2a.113.113 0 100-.226.113.113 0 000 .226z"/></g><defs><clipPath id="clip0_360_279"><path fill="#fff" transform="translate(2.362 7)" d="M0 0h19.977v3.516H0z"/></clipPath></defs></svg>