<svg width="24" height="16" fill="none" xmlns="http://www.w3.org/2000/svg"><path d="M5.176 5L8.35 6.204v.401h-.423a.182.182 0 01-.068.141.235.235 0 01-.16.06H2.652a.235.235 0 01-.16-.06.182.182 0 01-.069-.14H2v-.402L5.176 5zm-2.33 2.007h.848v2.407h.423V7.007h.847v2.407h.423V7.007h.847v2.407h.424V7.007h.846v2.407H7.7c.061 0 .115.02.16.06.045.04.068.087.068.141v.2H2.423v-.2c0-.054.023-.101.068-.141a.235.235 0 01.16-.06h.196V7.007zm5.277 3.01c.062 0 .115.02.16.059a.18.18 0 01.068.141v.401H2v-.4c0-.055.023-.102.068-.142a.235.235 0 01.16-.06h5.895zm2.787-3.534h-.581l-.004-.357h.472A.593.593 0 0011 6.098a.213.213 0 00.11-.085.254.254 0 00.036-.14.297.297 0 00-.036-.154.202.202 0 00-.113-.086.58.58 0 00-.197-.028h-.267v1.838H9.99V5.185h.811c.14 0 .264.013.374.039.11.025.202.063.279.115a.515.515 0 01.177.195c.04.078.06.169.06.274 0 .092-.02.179-.059.26a.452.452 0 01-.197.196.808.808 0 01-.373.078l-.15.141zm-.022.96h-.691l.186-.419h.505a.394.394 0 00.179-.034.219.219 0 00.097-.093.275.275 0 00.031-.13.356.356 0 00-.029-.15.201.201 0 00-.09-.098.332.332 0 00-.166-.036h-.457l.003-.357h.547l.127.143a.68.68 0 01.358.064.433.433 0 01.191.192.67.67 0 01-.039.62.57.57 0 01-.283.223c-.126.05-.282.075-.469.075zm1.998-.422v-.692a.333.333 0 00-.02-.122.161.161 0 00-.064-.08.204.204 0 00-.116-.029.23.23 0 00-.101.02.139.139 0 00-.064.061.214.214 0 00-.022.102h-.522c0-.077.017-.149.051-.215a.533.533 0 01.149-.175.72.72 0 01.232-.115c.091-.028.193-.042.304-.042.134 0 .253.022.357.067a.557.557 0 01.25.2.568.568 0 01.091.332v.686c0 .11.006.193.019.25a.54.54 0 00.053.147v.027h-.524a.704.704 0 01-.056-.19 1.569 1.569 0 01-.017-.232zm.063-.603l.003.279h-.23a.339.339 0 00-.125.02.21.21 0 00-.124.133.33.33 0 00-.012.092c0 .03.007.059.021.084a.162.162 0 00.062.055.18.18 0 00.087.02c.058 0 .107-.01.148-.032a.266.266 0 00.094-.082.163.163 0 00.033-.09l.114.214a1.45 1.45 0 01-.07.126.553.553 0 01-.098.117.467.467 0 01-.345.12.642.642 0 01-.285-.064.529.529 0 01-.206-.177.46.46 0 01-.078-.263c0-.087.016-.165.047-.233a.455.455 0 01.144-.173.687.687 0 01.245-.109c.1-.025.216-.037.35-.037h.225zm1.265-.295v1.32h-.522V5.765h.49l.032.358zm-.062.424l-.122.003c0-.129.015-.243.046-.343a.759.759 0 01.132-.257.561.561 0 01.203-.16.618.618 0 01.266-.056c.077 0 .148.011.212.034.065.023.12.06.167.11.048.05.084.118.109.202.026.082.039.185.039.307v1.056h-.526V6.385a.336.336 0 00-.028-.153.149.149 0 00-.08-.075.362.362 0 00-.13-.02.276.276 0 00-.136.031.242.242 0 00-.09.087.411.411 0 00-.048.129.885.885 0 00-.014.163zM16.02 5.06v2.383h-.522V5.06h.523zm1.074.705l-.729.854-.381.382-.228-.332.318-.414.393-.49h.627zm-.56 1.678l-.448-.765.386-.274.66 1.039h-.598zm-5.452.917v2.258h-.544V8.361h.544zm.68 0v.421H9.873v-.42h1.887zm.631.996v1.262h-.523V8.941h.488l.034.415zm.496-.428l-.01.486a7.745 7.745 0 00-.083-.008 1.035 1.035 0 00-.089-.005.513.513 0 00-.158.022.244.244 0 00-.17.164.47.47 0 00-.018.144l-.094-.062c0-.112.01-.215.033-.307a.832.832 0 01.096-.24.456.456 0 01.15-.157.364.364 0 01.199-.055.614.614 0 01.144.018zm1.004 1.269v-.692a.335.335 0 00-.02-.122.161.161 0 00-.063-.08.204.204 0 00-.117-.029.23.23 0 00-.1.02.138.138 0 00-.064.06.214.214 0 00-.022.103h-.522c0-.078.017-.15.051-.216a.533.533 0 01.149-.175.72.72 0 01.232-.114c.091-.028.193-.042.304-.042a.91.91 0 01.357.066.558.558 0 01.25.2.568.568 0 01.091.332v.687c0 .11.006.193.019.25.012.056.03.105.052.147v.026h-.524a.707.707 0 01-.055-.189 1.568 1.568 0 01-.018-.232zm.064-.604l.003.28h-.23a.339.339 0 00-.125.02.21.21 0 00-.124.133.33.33 0 00-.012.092c0 .03.007.059.021.083a.161.161 0 00.062.056.18.18 0 00.087.02c.058 0 .107-.01.148-.032a.265.265 0 00.094-.082.163.163 0 00.033-.09l.114.214c-.02.04-.044.083-.071.125a.549.549 0 01-.098.118.467.467 0 01-.344.12.641.641 0 01-.285-.064.528.528 0 01-.206-.177.46.46 0 01-.078-.264c0-.086.016-.164.047-.232a.455.455 0 01.144-.174.687.687 0 01.245-.108c.099-.025.216-.038.35-.038h.225zm1.265-.294v1.32H14.7V8.94h.49l.032.358zm-.062.423l-.122.003c0-.128.015-.242.046-.342a.757.757 0 01.132-.258.561.561 0 01.203-.16.618.618 0 01.265-.055c.078 0 .149.011.213.034.065.022.12.06.167.11a.49.49 0 01.109.201c.026.083.039.185.039.307v1.056h-.526V9.561a.336.336 0 00-.028-.154.15.15 0 00-.08-.074.361.361 0 00-.13-.02.287.287 0 00-.136.03.242.242 0 00-.09.088.411.411 0 00-.048.128.885.885 0 00-.014.163zm2.22.425a.104.104 0 00-.029-.074.24.24 0 00-.099-.06 1.376 1.376 0 00-.2-.055 1.435 1.435 0 01-.231-.07.797.797 0 01-.188-.105.414.414 0 01-.172-.343.465.465 0 01.18-.37.659.659 0 01.219-.117.915.915 0 01.293-.043c.15 0 .281.023.39.07a.56.56 0 01.253.192c.06.081.09.176.09.283h-.522a.247.247 0 00-.022-.108.138.138 0 00-.067-.068.264.264 0 00-.124-.025.24.24 0 00-.099.02.178.178 0 00-.07.056.137.137 0 00-.026.084c0 .022.005.043.015.062a.18.18 0 00.052.05.428.428 0 00.086.04c.036.01.078.021.128.03.112.021.218.05.316.089a.595.595 0 01.239.163c.062.07.093.165.093.284a.426.426 0 01-.052.206.512.512 0 01-.147.164.737.737 0 01-.23.109c-.09.025-.192.038-.305.038a.88.88 0 01-.406-.085.654.654 0 01-.251-.217.493.493 0 01-.084-.267h.487a.237.237 0 00.037.127.208.208 0 00.095.073.37.37 0 00.136.024.299.299 0 00.118-.02.168.168 0 00.073-.055.14.14 0 00.025-.082zm1.39.471h-.526V8.804c0-.13.027-.24.08-.329a.504.504 0 01.223-.201.776.776 0 01.341-.07 1.053 1.053 0 01.246.033l.002.384a.351.351 0 00-.057-.01.719.719 0 00-.073-.004.318.318 0 00-.129.024.166.166 0 00-.08.066.202.202 0 00-.027.107v1.814zm.326-1.677v.362h-1.093v-.362h1.093zm.963 1.709a.991.991 0 01-.366-.064.796.796 0 01-.273-.178.791.791 0 01-.227-.573v-.059c0-.123.017-.236.052-.34a.798.798 0 01.151-.277.679.679 0 01.253-.183.873.873 0 01.354-.066c.119 0 .225.019.32.057a.65.65 0 01.238.164.707.707 0 01.15.26c.036.1.053.214.053.34v.213h-1.37v-.327h.86v-.04a.291.291 0 00-.03-.143.203.203 0 00-.086-.09.29.29 0 00-.14-.031.25.25 0 00-.14.037.253.253 0 00-.086.102.539.539 0 00-.042.148 1.216 1.216 0 00-.012.176v.06c0 .061.008.118.024.168a.386.386 0 00.075.13.349.349 0 00.118.083c.046.02.099.03.158.03a.58.58 0 00.21-.041.422.422 0 00.179-.133l.237.282a.615.615 0 01-.146.14.808.808 0 01-.223.113.95.95 0 01-.291.041zm1.445-1.294v1.262h-.523V8.941h.489l.034.415zM22 8.928l-.01.486a7.93 7.93 0 00-.083-.008 1.037 1.037 0 00-.088-.005.513.513 0 00-.159.022.243.243 0 00-.17.164.473.473 0 00-.017.144l-.095-.062c0-.112.011-.215.033-.307a.834.834 0 01.096-.24.457.457 0 01.15-.157.364.364 0 01.199-.055.613.613 0 01.144.018z" fill="#DCDCDC"/></svg>